<?xml version="1.0" standalone="no"?><!DOCTYPE svg PUBLIC "-//W3C//DTD SVG 1.1//EN" "http://www.w3.org/Graphics/SVG/1.1/DTD/svg11.dtd"><svg t="1592926382635" class="icon" viewBox="0 0 1068 1024" version="1.1" xmlns="http://www.w3.org/2000/svg" p-id="3918" xmlns:xlink="http://www.w3.org/1999/xlink" width="208.59375" height="200"><defs><style type="text/css"></style></defs><path d="M939.903382 0H128.618357C56.888889 0 0 56.888889 0 128.618357v576.309179c0 71.729469 56.888889 128.618357 128.618357 128.618358H939.903382c71.729469 0 128.618357-56.888889 128.618357-128.618358V128.618357C1068.521739 56.888889 1011.63285 0 939.903382 0z m56.888889 704.927536c0 32.154589-24.7343 56.888889-56.888889 56.888889H128.618357c-32.154589 0-56.888889-24.7343-56.888888-56.888889V128.618357c0-32.154589 24.7343-56.888889 56.888888-56.888888H939.903382c32.154589 0 56.888889 24.7343 56.888889 56.888888v576.309179zM905.275362 949.797101h-202.821256v-19.787439c0-17.31401-14.84058-32.154589-32.154589-32.15459H378.434783c-17.31401 0-32.154589 14.84058-32.15459 32.15459v19.787439H143.458937c-19.78744 0-37.101449 17.31401-37.101449 37.10145s17.31401 37.101449 37.101449 37.101449h761.816425c19.78744 0 37.101449-17.31401 37.10145-37.101449s-17.31401-37.101449-37.10145-37.10145z" fill="#ffffff" p-id="3919"></path><path d="M440.270531 640.618357s116.251208-101.410628 116.251208-205.294686c0-61.835749-51.942029-113.777778-116.251208-113.777777s-116.251208 51.942029-116.251207 113.777777c0 108.830918 116.251208 205.294686 116.251207 205.294686z m-61.835748-202.821256c0-34.628019 29.681159-64.309179 64.309178-64.309178s64.309179 29.681159 64.309179 64.309178-29.681159 64.309179-64.309179 64.309179-64.309179-27.207729-64.309178-64.309179z" fill="#ffffff" p-id="3920"></path><path d="M534.26087 578.782609c-7.42029 9.89372-14.84058 19.78744-22.26087 27.207729 81.623188 4.94686 98.937198 22.26087 103.884058 29.68116-4.94686 9.89372-59.362319 34.628019-168.193237 34.628019-111.304348 0-165.719807-24.7343-168.193236-32.154589 2.47343-7.42029 17.31401-24.7343 91.516908-29.68116-7.42029-7.42029-14.84058-17.31401-22.26087-27.207729-61.835749 7.42029-98.937198 22.26087-98.937198 56.888889 0 49.468599 123.671498 64.309179 197.874396 64.309178s197.874396-12.36715 197.874396-64.309178c0-37.101449-46.995169-51.942029-111.304347-59.362319zM605.990338 207.768116s29.681159-24.7343 29.68116-51.942029c0-14.84058-12.36715-27.207729-29.68116-27.20773s-29.681159 12.36715-29.681159 27.20773c0 27.207729 29.681159 51.942029 29.681159 51.942029z m-17.314009-49.468599c0-9.89372 7.42029-14.84058 14.840579-14.84058s14.84058 7.42029 14.84058 14.84058-4.94686 14.84058-12.36715 14.84058-17.31401-7.42029-17.314009-14.84058z" fill="#ffffff" p-id="3921"></path><path d="M628.251208 192.927536c-2.47343 2.47343-2.47343 4.94686-4.94686 4.94686 19.78744 0 24.7343 4.94686 24.734299 7.42029 0 2.47343-14.84058 7.42029-42.048309 7.42029s-42.048309-4.94686-42.048309-7.42029c0-2.47343 4.94686-4.94686 22.26087-7.42029-2.47343-2.47343-2.47343-4.94686-4.94686-7.42029-14.84058 2.47343-24.7343 4.94686-24.7343 14.84058 0 12.36715 32.154589 14.84058 49.468599 14.84058s49.468599-2.47343 49.468599-14.84058c0-7.42029-9.89372-12.36715-27.207729-12.36715zM776.657005 348.753623s44.521739-39.574879 44.521739-79.149758c0-24.7343-19.78744-44.521739-44.521739-44.521739s-44.521739 22.26087-44.521739 46.995169c0 39.574879 44.521739 76.676329 44.521739 76.676328z m-22.26087-76.676328c0-12.36715 9.89372-24.7343 24.7343-24.7343s24.7343 9.89372 24.734299 24.7343-9.89372 24.7343-24.734299 24.734299-24.7343-9.89372-24.7343-24.734299z" fill="#ffffff" p-id="3922"></path><path d="M813.758454 326.492754c-2.47343 4.94686-4.94686 7.42029-7.42029 9.893719 32.154589 2.47343 37.101449 7.42029 39.574879 12.36715-2.47343 4.94686-22.26087 12.36715-64.309178 12.36715-42.048309 0-64.309179-9.89372-64.309179-12.36715 0-2.47343 7.42029-9.89372 34.628019-12.36715-2.47343-2.47343-4.94686-7.42029-7.42029-9.893719-22.26087 2.47343-37.101449 7.42029-37.101449 22.260869 0 19.78744 46.995169 24.7343 76.676329 24.7343 27.207729 0 76.676329-4.94686 76.676328-24.7343-4.94686-14.84058-22.26087-19.78744-46.995169-22.260869z" fill="#ffffff" p-id="3923"></path></svg>