<?xml version="1.0" standalone="no"?><!DOCTYPE svg PUBLIC "-//W3C//DTD SVG 1.1//EN" "http://www.w3.org/Graphics/SVG/1.1/DTD/svg11.dtd"><svg t="1592925488674" class="icon" viewBox="0 0 1024 1024" version="1.1" xmlns="http://www.w3.org/2000/svg" p-id="3421" xmlns:xlink="http://www.w3.org/1999/xlink" width="200" height="200"><defs><style type="text/css"></style></defs><path d="M876.554 332.081c-8.284 0-15 6.716-15 15v532.833c0 30.489-24.806 55.295-55.295 55.295H221.332c-30.49 0-55.295-24.806-55.295-55.295V146.163c0-30.49 24.805-55.295 55.295-55.295h389.786c8.284 0 15-6.716 15-15s-6.716-15-15-15H221.332c-47.032 0-85.295 38.263-85.295 85.295v733.751c0 47.031 38.263 85.295 85.295 85.295h584.927c47.032 0 85.295-38.264 85.295-85.295V347.081c0-8.284-6.716-15-15-15z" fill="#ffffff" p-id="3422"></path><path d="M559.874 483.741c0.063 0.507 6.265 50.938 8.827 72.314a15.003 15.003 0 0 0 14.894 13.215c2.007 0 4.02-0.402 5.913-1.215l66.994-28.741a14.995 14.995 0 0 0 7.088-6.306l220.899-383.99c16.15-28.075 6.448-64.054-21.626-80.205a58.75 58.75 0 0 0-29.249-7.831c-20.979 0-40.504 11.287-50.957 29.457L561.76 474.43a15.005 15.005 0 0 0-1.886 9.311z m248.788-378.342c5.115-8.892 14.677-14.416 24.953-14.416 4.987 0 9.929 1.326 14.29 3.835 13.735 7.902 18.482 25.506 10.581 39.241L640.08 513.716l-44 18.876c-2.14-17.566-4.677-38.241-5.819-47.542l218.401-379.651zM747.612 804.463h-473.91c-8.284 0-15 6.716-15 15s6.716 15 15 15h473.91c8.284 0 15-6.716 15-15s-6.716-15-15-15zM747.612 683.582h-473.91c-8.284 0-15 6.716-15 15s6.716 15 15 15h473.91c8.284 0 15-6.716 15-15s-6.716-15-15-15zM273.702 592.701h202.572c8.284 0 15-6.716 15-15s-6.716-15-15-15H273.702c-8.284 0-15 6.716-15 15s6.716 15 15 15z" fill="#ffffff" p-id="3423"></path></svg>